<?xml version="1.0" encoding="UTF-8" standalone="no"?>
<svg
   xmlns:dc="http://purl.org/dc/elements/1.1/"
   xmlns:cc="http://creativecommons.org/ns#"
   xmlns:rdf="http://www.w3.org/1999/02/22-rdf-syntax-ns#"
   xmlns:svg="http://www.w3.org/2000/svg"
   xmlns="http://www.w3.org/2000/svg"
   viewBox="0 0 798.87201 816"
   height="816"
   width="798.87201"
   xml:space="preserve"
   id="svg2"
   version="1.1"><metadata
     id="metadata8"><rdf:RDF><cc:Work
         rdf:about=""><dc:format>image/svg+xml</dc:format><dc:type
           rdf:resource="http://purl.org/dc/dcmitype/StillImage" /></cc:Work></rdf:RDF></metadata><defs
     id="defs6"><clipPath
       id="clipPath18"
       clipPathUnits="userSpaceOnUse"><path
         id="path16"
         d="M 0,612 H 599.154 V 0 H 0 Z" /></clipPath></defs><g
     transform="matrix(1.3333333,0,0,-1.3333333,0,816)"
     id="g10"><g
       id="g12"><g
         clip-path="url(#clipPath18)"
         id="g14"><g
           transform="translate(422.0031,336.6857)"
           id="g20"><path
             id="path22"
             style="fill:#70ad45;fill-opacity:1;fill-rule:nonzero;stroke:none"
             d="M 0,0 C -0.567,0 -1.066,0 -1.626,-0.061 L 8.857,18.464 66.877,120.878 H 0.186 L -45.913,39.547 v -3.305 c 0,-0.189 0,-0.499 -0.06,-1.06 -0.067,-1.434 -0.067,-2.869 -0.128,-4.304 -0.061,-0.874 -0.061,-1.684 -0.122,-2.558 -0.067,-1.06 -0.128,-2.12 -0.189,-3.183 -0.189,-3.43 -0.439,-7.547 -0.871,-12.226 -0.628,-5.924 -1.438,-12.725 -2.559,-20.084 -1.309,-8.61 -3.119,-17.967 -5.488,-27.571 -3.558,-14.348 -8.425,-29.383 -15.223,-43.29 -0.871,-1.873 -1.809,-3.682 -2.808,-5.552 19.901,15.969 45.474,25.575 73.361,25.575 62.939,0 114.212,-49.031 114.212,-109.225 0,-60.195 -51.273,-109.223 -114.212,-109.223 -53.838,0 -99.123,35.803 -111.099,83.772 -1.56,6.052 -2.559,12.29 -2.93,18.652 h -0.061 c -0.128,2.245 -0.189,4.49 -0.189,6.799 0,2.244 0.061,4.492 0.189,6.737 0.311,14.346 1.931,26.261 4.24,36.492 4.239,18.339 10.977,31.564 17.653,44.6 1.682,3.243 3.241,6.423 4.8,9.542 6.988,14.349 11.794,30.004 15.096,44.789 0.877,3.618 1.559,7.112 2.186,10.541 1.06,5.614 1.931,10.917 2.559,15.906 0.311,1.934 0.56,3.743 0.743,5.552 0.816,6.923 1.316,13.039 1.627,17.839 0.182,2.684 0.31,5.428 0.432,8.172 0,0.814 0.067,1.624 0.067,2.373 v 1.06 c 0.061,1.495 0.061,3.055 0.061,4.553 0,4.74 -0.128,9.482 -0.439,14.16 -7.297,120.453 -107.663,216.204 -229.922,216.204 h -123.525 v -456.798 h 127.515 c 35.868,0 69.865,8.421 100.055,23.331 0.061,1.498 0.122,2.994 0.189,4.489 v 0.128 c 0.871,30.875 6.299,54.828 12.908,73.916 -29.94,-27.26 -69.615,-43.851 -113.152,-43.851 h -69.504 v 340.772 h 65.514 c 90.132,0 164.236,-69.49 171.662,-157.691 0.5,-4.803 0.688,-9.731 0.688,-14.66 0,-1.559 -0.067,-3.182 -0.067,-4.742 0,-0.371 0,-0.935 -0.06,-1.62 0,-0.5 -0.061,-1.06 -0.061,-1.685 0,-0.374 -0.061,-0.749 -0.061,-1.123 -0.561,-11.977 -3.119,-43.166 -13.536,-68.991 -0.999,-2.495 -2.059,-4.864 -3.186,-7.234 -1.37,-2.808 -2.802,-5.677 -4.301,-8.607 -10.977,-21.522 -25.389,-49.903 -27.881,-98.435 0.122,0.061 0.25,0.125 0.311,0.189 -0.25,-2.434 -0.439,-4.867 -0.561,-7.301 -0.067,-0.81 -0.128,-1.559 -0.067,-2.37 -0.121,-3.993 -0.061,-8.108 0.067,-12.35 -0.067,-0.25 -0.067,-0.5 -0.067,-0.75 0,-0.56 0,-1.12 0.067,-1.62 0.311,-6.302 0.993,-12.54 2.059,-18.653 13.347,-79.343 84.522,-140.101 169.981,-140.101 94.938,0 172.222,75.043 172.222,167.237 C 172.222,-75.043 94.938,0 0,0" /></g></g></g></g></svg>